<?xml version="1.0" encoding="UTF-8"?>
<svg width="298px" height="60px" viewBox="0 0 298 60" version="1.1" xmlns="http://www.w3.org/2000/svg" xmlns:xlink="http://www.w3.org/1999/xlink">
    <!-- Generator: sketchtool 54.1 (76490) - https://sketchapp.com -->
    <title>536B67C9-855A-49DC-9475-7486E3EE6A56</title>
    <desc>Created with sketchtool.</desc>
    <g id="Page-1" stroke="none" stroke-width="1" fill="none" fill-rule="evenodd">
        <g id="Вход_MW_1" transform="translate(-65.000000, -65.000000)" fill="#FFFFFF">
            <g id="Logo_white" transform="translate(65.000000, 65.000000)">
                <g id="Group-7" transform="translate(74.186105, 18.947368)" fill-rule="nonzero">
                    <path d="M52.3521847,0 L54.7781757,10.2105263 C54.8484947,10.5146214 54.936392,10.9590614 55.0418704,11.5438596 C55.1473488,12.1286579 55.2645453,12.7543826 55.3934633,13.4210526 C55.5223814,14.0877226 55.6395779,14.7485347 55.7450563,15.4035088 C55.8505347,16.0584828 55.938432,16.5964891 56.0087509,17.0175439 L56.0790695,17.0175439 C56.1493885,16.5730972 56.2372858,16.029243 56.3427642,15.3859649 C56.4482426,14.7426868 56.5654391,14.0877226 56.6943571,13.4210526 C56.8232752,12.7543826 56.9521913,12.1345058 57.0811093,11.5614035 C57.2100274,10.9883012 57.3096444,10.5380133 57.3799633,10.2105263 L59.9465916,0 L64.9743702,0 L67.5409985,10.1754386 C67.6113174,10.4795337 67.7050746,10.9239737 67.8222728,11.5087719 C67.939471,12.0935702 68.0683871,12.7251428 68.209025,13.4035088 C68.3496629,14.0818747 68.478579,14.7485347 68.5957772,15.4035088 C68.7129754,16.0584828 68.8067326,16.5964891 68.8770515,17.0175439 L68.9473701,17.0175439 C69.0176891,16.5730972 69.1114462,16.029243 69.2286444,15.3859649 C69.3458427,14.7426868 69.468899,14.0935705 69.597817,13.4385965 C69.7267351,12.7836225 69.8497913,12.1578977 69.9669896,11.5614035 C70.0841878,10.9649093 70.177945,10.5029256 70.2482639,10.1754386 L72.5687771,0 L77.4207593,0 L71.7601134,22.1052632 L66.4862197,22.1052632 L63.6383171,10.7017544 C63.4039207,9.76607719 63.1871072,8.84210982 62.9878703,7.92982456 C62.7886333,7.0175393 62.5952591,6.07018035 62.4077419,5.0877193 L62.3374234,5.0877193 C62.1499062,6.07018035 61.9623919,7.00584351 61.7748747,7.89473684 C61.5873575,8.78363018 61.3764039,9.70759754 61.1420075,10.6666667 L58.3995827,22.1052632 L53.2311669,22.1052632 L47.4650432,0 L52.3521847,0 Z M84.382299,13.4736842 L90.0077856,13.4736842 L88.9881661,10.5263158 C88.6600111,9.61403053 88.3553003,8.69591105 88.0740246,7.77192982 C87.7927488,6.8479486 87.5231969,5.91813333 87.2653609,4.98245614 L87.1950423,4.98245614 C86.9372062,5.87134947 86.6559347,6.77777316 86.3512193,7.70175439 C86.0465039,8.62573561 85.7300734,9.56724667 85.4019184,10.5263158 L84.382299,13.4736842 Z M84.8042105,0 L89.7968298,0 L97.9889447,22.1052632 L92.8908475,22.1052632 L91.1680422,17.0175439 L83.2923609,17.0175439 L81.5695557,22.1052632 L76.541777,22.1052632 L84.8042105,0 Z M100.801688,0 L109.204759,0 C110.44706,0 111.542847,0.181284737 112.492152,0.543859649 C113.441458,0.906434561 114.232534,1.39765772 114.865404,2.01754386 C115.498275,2.63743 115.972921,3.36256895 116.289356,4.19298246 C116.605791,5.02339596 116.764006,5.91812386 116.764006,6.87719298 C116.764006,7.76608632 116.62923,8.55555211 116.359674,9.24561404 C116.090118,9.93567596 115.750249,10.5321612 115.340055,11.0350877 C114.929861,11.5380142 114.472795,11.9590626 113.968843,12.2982456 C113.46489,12.6374286 112.978525,12.9122796 112.509732,13.122807 L117.924263,22.1052632 L112.404254,22.1052632 L108.14998,13.9649123 L105.583352,13.9649123 L105.583352,22.1052632 L100.801688,22.1052632 L100.801688,0 Z M105.583352,10.2807018 L107.481953,10.2807018 C108.747694,10.2807018 109.784883,10.0233944 110.593551,9.50877193 C111.402218,8.99414947 111.806546,8.14035684 111.806546,6.94736842 C111.806546,5.89473158 111.484256,5.08187421 110.839666,4.50877193 C110.195075,3.93566965 109.251644,3.64912281 108.009343,3.64912281 L105.583352,3.64912281 L105.583352,10.2807018 Z M120.877643,0 L129.280714,0 C130.523015,0 131.618802,0.181284737 132.568108,0.543859649 C133.517413,0.906434561 134.308489,1.39765772 134.94136,2.01754386 C135.57423,2.63743 136.048876,3.36256895 136.365311,4.19298246 C136.681746,5.02339596 136.839961,5.91812386 136.839961,6.87719298 C136.839961,7.76608632 136.705186,8.55555211 136.43563,9.24561404 C136.166074,9.93567596 135.826204,10.5321612 135.41601,11.0350877 C135.005816,11.5380142 134.54875,11.9590626 134.044798,12.2982456 C133.540845,12.6374286 133.05448,12.9122796 132.585687,13.122807 L138.000218,22.1052632 L132.480209,22.1052632 L128.225935,13.9649123 L125.659307,13.9649123 L125.659307,22.1052632 L120.877643,22.1052632 L120.877643,0 Z M125.659307,10.2807018 L127.557909,10.2807018 C128.823649,10.2807018 129.860838,10.0233944 130.669506,9.50877193 C131.478174,8.99414947 131.882501,8.14035684 131.882501,6.94736842 C131.882501,5.89473158 131.560211,5.08187421 130.915621,4.50877193 C130.271031,3.93566965 129.327599,3.64912281 128.085298,3.64912281 L125.659307,3.64912281 L125.659307,10.2807018 Z M146.790041,13.4736842 L152.415528,13.4736842 L151.395908,10.5263158 C151.067753,9.61403053 150.763042,8.69591105 150.481766,7.77192982 C150.200491,6.8479486 149.930939,5.91813333 149.673103,4.98245614 L149.602784,4.98245614 C149.344948,5.87134947 149.063677,6.77777316 148.758961,7.70175439 C148.454246,8.62573561 148.137815,9.56724667 147.80966,10.5263158 L146.790041,13.4736842 Z M147.211952,0 L152.204572,0 L160.396687,22.1052632 L155.298589,22.1052632 L153.575784,17.0175439 L145.700103,17.0175439 L143.977298,22.1052632 L138.949519,22.1052632 L147.211952,0 Z M163.20943,0 L167.604341,0 L175.233908,11.6491228 C175.74958,12.4444484 176.224225,13.2222184 176.657859,13.9824561 C177.091492,14.7426939 177.402063,15.3333312 177.58958,15.754386 L177.659899,15.754386 C177.519261,14.2339105 177.448943,12.7193058 177.448943,11.2105263 L177.448943,0 L181.914173,0 L181.914173,22.1052632 L177.519261,22.1052632 L170.417085,11.3684211 C170.112369,10.9005825 169.813518,10.4152072 169.520523,9.9122807 C169.227527,9.40935421 168.952115,8.92397895 168.694279,8.45614035 C168.436443,7.98830175 168.20791,7.56140544 168.008673,7.1754386 C167.809436,6.78947175 167.662941,6.46783754 167.569182,6.21052632 L167.498863,6.21052632 C167.616062,7.82456947 167.68052,9.37426158 167.69224,10.8596491 C167.703959,12.3450367 167.709819,13.8596414 167.709819,15.4035088 L167.709819,22.1052632 L163.20943,22.1052632 L163.20943,0 Z M201.88465,0 L201.88465,3.78947368 L195.626296,3.78947368 L195.626296,22.1052632 L190.809474,22.1052632 L190.809474,3.78947368 L184.691757,3.78947368 L184.691757,0 L201.88465,0 Z M208.811031,0 L213.522376,8.59649123 L218.304039,0 L223.542774,0 L215.80773,12.9824561 L215.80773,22.1052632 L210.990907,22.1052632 L210.990907,12.9824561 L203.3965,0 L208.811031,0 Z" id="WARRANTY"></path>
                    <polygon id="Y" points="29.5689639 0 35.8624771 10.9824561 42.1911495 0 44.4061848 0 36.7414593 12.8421053 36.7414593 22.1052632 34.9131762 22.1052632 34.9131762 12.8421053 27.4242472 0"></polygon>
                    <path d="M1.89860173,0 L5.55516802,13.0175439 C5.88332304,14.1637484 6.19389367,15.3099358 6.48688923,16.4561404 C6.77988479,17.6023449 7.04357684,18.7602281 7.27797329,19.9298246 L7.34829187,19.9298246 C7.60612796,18.7602281 7.8932593,17.6023449 8.2096945,16.4561404 C8.52612971,15.3099358 8.84841999,14.1637484 9.17657501,13.0175439 L12.9737785,0 L14.6965837,0 L18.5641058,13.0175439 C18.8922608,14.1871404 19.2204109,15.3391756 19.5485659,16.4736842 C19.876721,17.6081928 20.1814318,18.7602281 20.4627075,19.9298246 L20.5330261,19.9298246 C20.7908622,18.7602281 21.0545542,17.6081928 21.3241101,16.4736842 C21.593666,15.3391756 21.892517,14.1871404 22.2206721,13.0175439 L25.7717605,0 L27.6352029,0 L21.4120084,22.1052632 L19.5485659,22.1052632 L15.2591324,7.29824561 C15.0012963,6.45613614 14.7551837,5.6081914 14.5207873,4.75438596 C14.2863908,3.90058053 14.0637176,3.04094 13.8527607,2.1754386 L13.7824422,2.1754386 C13.5714854,3.04094 13.3546719,3.89473263 13.1319953,4.73684211 C12.9093187,5.57895158 12.6690659,6.43274421 12.4112298,7.29824561 L8.22727415,22.1052632 L6.39899101,22.1052632 L7.10542736e-15,0 L1.89860173,0 Z" id="W" transform="translate(13.817601, 11.052632) rotate(180.000000) translate(-13.817601, -11.052632) "></path>
                </g>
                <g id="Group-3-Copy-2">
                    <path d="M14.5709474,0 L60.122388,0 L60.122388,45.4290526 C60.122388,53.4763647 53.5987527,60 45.5514406,60 L6.75015599e-14,60 L6.57252031e-14,14.5709474 C6.47396916e-14,6.52363535 6.52363535,1.47826724e-15 14.5709474,0 Z M32.5054808,21.8691589 L29.0845731,21.8691589 L33.120752,38.0048131 L36.7385464,38.0048131 L38.6581925,29.6552523 C38.8222656,28.9551834 38.9699292,28.2807369 39.1011877,27.6318925 C39.2324462,26.9830482 39.3637028,26.3000643 39.4949613,25.5829206 L39.5441829,25.5829206 C39.6754415,26.3000643 39.8107998,26.9915855 39.9502619,27.6575047 C40.0897241,28.3234239 40.2414895,28.9978704 40.4055626,29.6808645 L42.3990412,38.0048131 L46.0906682,38.0048131 L50.0530145,21.8691589 L46.6567176,21.8691589 L45.0324018,29.2966822 C44.9831798,29.5357302 44.9175516,29.8729534 44.835515,30.3083621 C44.7534784,30.7437709 44.6673413,31.2005163 44.5771011,31.6786121 C44.4868609,32.156708 44.4007238,32.630528 44.3186872,33.1000864 C44.2366506,33.5696449 44.1710224,33.9666292 44.1218004,34.2910514 L44.0725787,34.2910514 C44.0233568,33.9837041 43.9577285,33.5909884 43.875692,33.1128925 C43.7936554,32.6347967 43.7034165,32.1481707 43.6049727,31.653 C43.5065288,31.1578293 43.4162899,30.6968152 43.3342533,30.2699439 C43.2522168,29.8430726 43.1865885,29.5186553 43.1373666,29.2966822 L41.3407748,21.8691589 L37.8214237,21.8691589 L36.0248319,29.3222944 C35.9756099,29.5613423 35.9058799,29.8900283 35.8156397,30.3083621 C35.7253995,30.726696 35.6351606,31.1791728 35.5449204,31.6658061 C35.4546801,32.1524393 35.3726448,32.630528 35.2988119,33.1000864 C35.224979,33.5696449 35.1634525,33.9666292 35.1142305,34.2910514 L35.0650089,34.2910514 C35.0157869,33.9837041 34.9542604,33.5909884 34.8804275,33.1128925 C34.8065946,32.6347967 34.7245593,32.1524393 34.634319,31.6658061 C34.5440788,31.1791728 34.4620435,30.7224274 34.3882106,30.2955561 C34.3143777,29.8686848 34.2528512,29.5442675 34.2036292,29.3222944 L32.5054808,21.8691589 Z M27.5672949,38.0048131 L28.8962806,38.0048131 L24.4171065,21.8691589 L23.1373425,21.8691589 L20.2086517,32.677486 C20.0281713,33.3092555 19.8599988,33.9324782 19.7041294,34.5471729 C19.5482599,35.1618676 19.3964945,35.7850903 19.2488287,36.4168598 L19.199607,36.4168598 C19.0519412,35.7850903 18.8960741,35.1575989 18.7320009,34.5343668 C18.5679278,33.9111347 18.3956536,33.2921806 18.2151731,32.677486 L15.2126498,21.8691589 L13.908275,21.8691589 L9.55215511,38.0048131 L10.85653,38.0048131 L13.3422255,28.5027056 C13.5719279,27.648963 13.781118,26.8080392 13.9698021,25.9799089 C14.1584862,25.1517786 14.3430657,24.3108547 14.5235461,23.4571121 L14.5727678,23.4571121 C14.7696556,24.3108547 14.9829475,25.1517786 15.2126498,25.9799089 C15.4423522,26.8080392 15.6720512,27.648963 15.9017535,28.5027056 L18.6089467,38.0048131 L19.8148782,38.0048131 L22.4728496,28.5027056 C22.702552,27.6660379 22.9281492,26.8293827 23.1496479,25.992715 C23.3711466,25.1560472 23.5721332,24.3108547 23.7526136,23.4571121 L23.8018353,23.4571121 C23.9659085,24.3108547 24.150488,25.1560472 24.3555794,25.992715 C24.5606708,26.8293827 24.7780644,27.6660379 25.0077668,28.5027056 L27.5672949,38.0048131 Z" id="Combined-Shape"></path>
                </g>
            </g>
        </g>
    </g>
</svg>