<?xml version="1.0" encoding="UTF-8"?>
<svg width="24px" height="24px" viewBox="0 0 24 24" version="1.1" xmlns="http://www.w3.org/2000/svg" xmlns:xlink="http://www.w3.org/1999/xlink">
    <!-- Generator: sketchtool 54.1 (76490) - https://sketchapp.com -->
    <title>6964660D-695F-444B-82A7-F1AC74155076</title>
    <desc>Created with sketchtool.</desc>
    <g id="Symbols" stroke="none" stroke-width="1" fill="none" fill-rule="evenodd">
        <g id="ic_exit">
            <g>
                <polygon id="Path" points="0 0 24 0 24 24 0 24"></polygon>
                <path d="M10.79,16.29 C11.18,16.68 11.81,16.68 12.2,16.29 L15.79,12.7 C16.18,12.31 16.18,11.68 15.79,11.29 L12.2,7.7 C11.81,7.31 11.18,7.31 10.79,7.7 C10.4,8.09 10.4,8.72 10.79,9.11 L12.67,11 L4,11 C3.45,11 3,11.45 3,12 C3,12.55 3.45,13 4,13 L12.67,13 L10.79,14.88 C10.4,15.27 10.41,15.91 10.79,16.29 Z M19,3 L5,3 C3.89,3 3,3.9 3,5 L3,8 C3,8.55 3.45,9 4,9 C4.55,9 5,8.55 5,8 L5,6 C5,5.45 5.45,5 6,5 L18,5 C18.55,5 19,5.45 19,6 L19,18 C19,18.55 18.55,19 18,19 L6,19 C5.45,19 5,18.55 5,18 L5,16 C5,15.45 4.55,15 4,15 C3.45,15 3,15.45 3,16 L3,19 C3,20.1 3.9,21 5,21 L19,21 C20.1,21 21,20.1 21,19 L21,5 C21,3.9 20.1,3 19,3 Z" id="Shape" fill="#C5CBDA" fill-rule="nonzero"></path>
            </g>
        </g>
    </g>
</svg>