<?xml version="1.0" encoding="UTF-8"?>
<svg width="73px" height="73px" viewBox="0 0 73 73" version="1.1" xmlns="http://www.w3.org/2000/svg" xmlns:xlink="http://www.w3.org/1999/xlink">
    <!-- Generator: sketchtool 54.1 (76490) - https://sketchapp.com -->
    <title>5D53EB08-084C-4743-BB7B-538C52D6FD53</title>
    <desc>Created with sketchtool.</desc>
    <g id="Symbols" stroke="none" stroke-width="1" fill="none" fill-rule="evenodd">
        <g id="ic_sale-list">
            <g transform="translate(7.500000, 3.500000)">
                <rect id="Rectangle" stroke="#96C8FE" stroke-width="2" fill="#F7FAFD" x="1" y="1" width="56" height="64" rx="6"></rect>
                <path d="M29.4983692,8.30285016 L39.4582311,14.680363 C39.789305,14.892355 39.9654445,15.2786691 39.9083765,15.6676341 C38.0266055,28.4934187 34.2265921,34.906311 28.5083365,34.906311 C22.790153,34.906311 18.984785,28.4935806 17.0922324,15.6681198 L17.0922305,15.6681201 C17.0347946,15.2788884 17.2109349,14.8921495 17.5422761,14.6799864 L27.5016308,8.30285016 C28.1101784,7.91318734 28.8898216,7.91318734 29.4983692,8.30285016 Z" id="Triangle" stroke="#96C8FE" stroke-width="2"></path>
                <polyline id="Path-3" stroke="#96C8FE" stroke-width="2" stroke-linecap="round" stroke-linejoin="round" points="23.6578947 23.151132 27.5341161 26.8953939 34.6822754 18.5244584"></polyline>
                <rect id="Rectangle-Copy-12" fill="#96C8FE" x="8" y="49" width="42" height="2" rx="1"></rect>
                <rect id="Rectangle-Copy-14" fill="#96C8FE" x="8" y="41" width="42" height="2" rx="1"></rect>
                <rect id="Rectangle-Copy-13" fill="#96C8FE" x="8" y="57" width="42" height="2" rx="1"></rect>
            </g>
        </g>
    </g>
</svg>