<?xml version="1.0" encoding="UTF-8"?>
<svg width="179px" height="36px" viewBox="0 0 179 36" version="1.1" xmlns="http://www.w3.org/2000/svg" xmlns:xlink="http://www.w3.org/1999/xlink">
    <!-- Generator: sketchtool 54.1 (76490) - https://sketchapp.com -->
    <title>9C840C1C-F430-426C-9606-A3E5B1634BE5</title>
    <desc>Created with sketchtool.</desc>
    <g id="Symbols" stroke="none" stroke-width="1" fill="none" fill-rule="evenodd">
        <g id="Logo_blue">
            <g>
                <g id="Group-7" transform="translate(44.412417, 11.368421)" fill="#4694DD" fill-rule="nonzero">
                    <path d="M31.3412744,0 L32.7936236,6.12631579 C32.8357209,6.30877284 32.8883417,6.57543684 32.9514877,6.92631579 C33.0146336,7.27719474 33.0847947,7.65262958 33.161973,8.05263158 C33.2391514,8.45263358 33.3093125,8.84912084 33.3724584,9.24210526 C33.4356044,9.63508968 33.4882252,9.95789347 33.5303225,10.2105263 L33.5724195,10.2105263 C33.6145168,9.94385832 33.6671377,9.61754579 33.7302836,9.23157895 C33.7934295,8.84561211 33.8635906,8.45263358 33.940769,8.05263158 C34.0179473,7.65262958 34.0951245,7.28070347 34.1723029,6.93684211 C34.2494813,6.59298074 34.3091182,6.322808 34.3512155,6.12631579 L35.8877588,0 L38.8976999,0 L40.4342432,6.10526316 C40.4763405,6.28772021 40.5324694,6.55438421 40.6026315,6.90526316 C40.6727937,7.25614211 40.7499709,7.63508568 40.8341655,8.04210526 C40.91836,8.44912484 40.9955373,8.84912084 41.0656994,9.24210526 C41.1358615,9.63508968 41.1919904,9.95789347 41.2340877,10.2105263 L41.2761848,10.2105263 C41.3182821,9.94385832 41.374411,9.61754579 41.4445731,9.23157895 C41.5147352,8.84561211 41.5884044,8.45614232 41.6655828,8.06315789 C41.7427611,7.67017347 41.8164303,7.29473863 41.8865924,6.93684211 C41.9567546,6.57894558 42.0128834,6.30175537 42.0549807,6.10526316 L43.4441843,0 L46.3488827,0 L42.9600679,13.2631579 L39.8027871,13.2631579 L38.0978554,6.42105263 C37.9575311,5.85964632 37.8277331,5.30526589 37.7084574,4.75789474 C37.5891818,4.21052358 37.473416,3.64210821 37.3611566,3.05263158 L37.3190595,3.05263158 C37.2068,3.64210821 37.0945423,4.20350611 36.9822829,4.73684211 C36.8700234,5.27017811 36.7437334,5.82455853 36.6034092,6.4 L34.9616231,13.2631579 L31.8674879,13.2631579 L28.4155275,0 L31.3412744,0 Z M50.5164934,8.08421053 L53.8842596,8.08421053 L53.273852,6.31578947 C53.0773979,5.76841832 52.8949791,5.21754663 52.7265899,4.66315789 C52.5582008,4.10876916 52.3968303,3.55088 52.2424736,2.98947368 L52.2003765,2.98947368 C52.0460198,3.52280968 51.8776331,4.06666389 51.6952115,4.62105263 C51.51279,5.17544137 51.323355,5.740348 51.126901,6.31578947 L50.5164934,8.08421053 Z M50.7690758,0 L53.7579684,0 L58.6622779,13.2631579 L55.6102398,13.2631579 L54.5788614,10.2105263 L49.8639887,10.2105263 L48.8326103,13.2631579 L45.8226692,13.2631579 L50.7690758,0 Z M60.346161,0 L65.3767618,0 C66.1204806,0 66.7764868,0.108770842 67.3448002,0.326315789 C67.9131136,0.543860737 68.386701,0.838594632 68.7655766,1.21052632 C69.1444522,1.582458 69.4286046,2.01754137 69.6180424,2.51578947 C69.8074802,3.01403758 69.9021977,3.55087432 69.9021977,4.12631579 C69.9021977,4.65965179 69.8215124,5.13333126 69.6601395,5.54736842 C69.4987666,5.96140558 69.2952994,6.31929674 69.0497319,6.62105263 C68.8041644,6.92280853 68.5305361,7.17543758 68.2288389,7.37894737 C67.9271416,7.58245716 67.6359731,7.74736779 67.3553245,7.87368421 L70.5967995,13.2631579 L67.2921789,13.2631579 L64.7453057,8.37894737 L63.2087623,8.37894737 L63.2087623,13.2631579 L60.346161,13.2631579 L60.346161,0 Z M63.2087623,6.16842105 L64.3453834,6.16842105 C65.1031346,6.16842105 65.7240603,6.01403663 66.2081791,5.70526316 C66.6922979,5.39648968 66.9343537,4.88421411 66.9343537,4.16842105 C66.9343537,3.53683895 66.7414107,3.04912453 66.3555189,2.70526316 C65.9696271,2.36140179 65.4048303,2.18947368 64.6611115,2.18947368 L63.2087623,2.18947368 L63.2087623,6.16842105 Z M72.3648767,0 L77.3954775,0 C78.1391963,0 78.7952025,0.108770842 79.3635159,0.326315789 C79.9318293,0.543860737 80.4054167,0.838594632 80.7842923,1.21052632 C81.1631679,1.582458 81.4473203,2.01754137 81.6367581,2.51578947 C81.8261959,3.01403758 81.9209134,3.55087432 81.9209134,4.12631579 C81.9209134,4.65965179 81.8402281,5.13333126 81.6788552,5.54736842 C81.5174823,5.96140558 81.3140151,6.31929674 81.0684476,6.62105263 C80.8228801,6.92280853 80.5492518,7.17543758 80.2475546,7.37894737 C79.9458573,7.58245716 79.6546888,7.74736779 79.3740402,7.87368421 L82.6155152,13.2631579 L79.3108946,13.2631579 L76.7640214,8.37894737 L75.227478,8.37894737 L75.227478,13.2631579 L72.3648767,13.2631579 L72.3648767,0 Z M75.227478,6.16842105 L76.3640991,6.16842105 C77.1218503,6.16842105 77.742776,6.01403663 78.2268948,5.70526316 C78.7110136,5.39648968 78.9530694,4.88421411 78.9530694,4.16842105 C78.9530694,3.53683895 78.7601264,3.04912453 78.3742346,2.70526316 C77.9883428,2.36140179 77.423546,2.18947368 76.6798272,2.18947368 L75.227478,2.18947368 L75.227478,6.16842105 Z M87.8776499,8.08421053 L91.2454161,8.08421053 L90.6350085,6.31578947 C90.4385545,5.76841832 90.2561357,5.21754663 90.0877465,4.66315789 C89.9193573,4.10876916 89.7579868,3.55088 89.6036301,2.98947368 L89.561533,2.98947368 C89.4071763,3.52280968 89.2387897,4.06666389 89.0563681,4.62105263 C88.8739465,5.17544137 88.6845116,5.740348 88.4880575,6.31578947 L87.8776499,8.08421053 Z M88.1302324,0 L91.1191249,0 L96.0234345,13.2631579 L92.9713963,13.2631579 L91.9400179,10.2105263 L87.2251452,10.2105263 L86.1937668,13.2631579 L83.1838257,13.2631579 L88.1302324,0 Z M97.7073176,0 L100.338385,0 L104.905918,6.98947368 C105.214631,7.46666905 105.498784,7.93333105 105.758384,8.38947368 C106.017984,8.84561632 106.203911,9.19999874 106.31617,9.45263158 L106.358267,9.45263158 C106.274072,8.54034632 106.231976,7.63158347 106.231976,6.72631579 L106.231976,0 L108.90514,0 L108.90514,13.2631579 L106.274073,13.2631579 L102.022268,6.82105263 C101.839846,6.54034947 101.660936,6.24912432 101.48553,5.94736842 C101.310125,5.64561253 101.145246,5.35438737 100.99089,5.07368421 C100.836533,4.79298105 100.699719,4.53684326 100.580443,4.30526316 C100.461167,4.07368305 100.373466,3.88070253 100.317336,3.72631579 L100.275239,3.72631579 C100.345401,4.69474168 100.38399,5.62455695 100.391006,6.51578947 C100.398023,7.407022 100.401531,8.31578484 100.401531,9.24210526 L100.401531,13.2631579 L97.7073176,13.2631579 L97.7073176,0 Z M120.86071,0 L120.86071,2.27368421 L117.11407,2.27368421 L117.11407,13.2631579 L114.230421,13.2631579 L114.230421,2.27368421 L110.567975,2.27368421 L110.567975,0 L120.86071,0 Z M125.007273,0 L127.827777,5.15789474 L130.690378,0 L133.82661,0 L129.195932,7.78947368 L129.195932,13.2631579 L126.312282,13.2631579 L126.312282,7.78947368 L121.765798,0 L125.007273,0 Z" id="WARRANTY"></path>
                    <polygon id="Y" points="17.7018212 0 21.4695097 6.58947368 25.2582467 0 26.5843046 0 21.9957232 7.70526316 21.9957232 13.2631579 20.9011991 13.2631579 20.9011991 7.70526316 16.4178603 0"></polygon>
                    <path d="M1.1366211,0 L3.32566915,7.81052632 C3.52212316,8.49824905 3.70805006,9.18596147 3.88345543,9.87368421 C4.0588608,10.5614069 4.21672326,11.2561368 4.35704755,11.9578947 L4.39914463,11.9578947 C4.55350135,11.2561368 4.72539604,10.5614069 4.91483383,9.87368421 C5.10427163,9.18596147 5.29721464,8.49824905 5.49366865,7.81052632 L7.76691085,0 L8.79828926,0 L11.1136285,7.81052632 C11.3100826,8.51228421 11.5065336,9.20350537 11.7029876,9.88421053 C11.8994416,10.5649157 12.0818605,11.2561368 12.2502496,11.9578947 L12.2923467,11.9578947 C12.4467034,11.2561368 12.6045659,10.5649157 12.7659388,9.88421053 C12.9273118,9.20350537 13.1062226,8.51228421 13.3026766,7.81052632 L15.428579,0 L16.5441516,0 L12.8185602,13.2631579 L11.7029876,13.2631579 L9.13506588,4.37894737 C8.98070916,3.87368168 8.83337086,3.36491484 8.69304657,2.85263158 C8.55272227,2.34034832 8.41941619,1.824564 8.29312433,1.30526316 L8.25102725,1.30526316 C8.12473538,1.824564 7.99493736,2.33683958 7.86162928,2.84210526 C7.7283212,3.34737095 7.58449096,3.85964653 7.43013423,4.37894737 L4.9253581,13.2631579 L3.83083408,13.2631579 L7.10542736e-15,0 L1.1366211,0 Z" id="W" transform="translate(8.272076, 6.631579) rotate(180.000000) translate(-8.272076, -6.631579) "></path>
                </g>
                <g id="Group-3-Copy-2">
                    <path d="M8.74256842,0 L35.9930015,0 L35.9930015,27.2574316 C35.9930015,32.0858188 32.0788203,36 27.2504331,36 L0,36 L0,8.74256842 C-5.91306895e-16,3.91418121 3.91418121,8.86960342e-16 8.74256842,0 Z" id="Rectangle-Copy" fill="#4694DD"></path>
                    <path d="M19.4598029,13.1214953 L20.4764202,17.5933766 C20.5058875,17.7265605 20.5427211,17.9212109 20.586922,18.1773336 C20.631123,18.4334564 20.6802345,18.7075037 20.7342579,18.9994836 C20.7882813,19.2914636 20.8373927,19.580878 20.8815937,19.8677355 C20.9257947,20.154593 20.9626283,20.3902224 20.9920956,20.5746308 L21.0215628,20.5746308 C21.0510301,20.3799775 21.0878637,20.1417869 21.1320646,19.8600519 C21.1762656,19.5783168 21.2253771,19.2914636 21.2794005,18.9994836 C21.3334239,18.7075037 21.3874465,18.4360176 21.4414699,18.1850173 C21.4954933,17.934017 21.5372381,17.7368054 21.5667054,17.5933766 L22.642257,13.1214953 L24.7491595,13.1214953 L25.8247111,17.5780093 C25.8541784,17.7111932 25.8934676,17.9058436 25.9425798,18.1619664 C25.9916919,18.4180891 26.0457145,18.6946976 26.1046492,18.9918 C26.1635838,19.2889024 26.2176064,19.580878 26.2667186,19.8677355 C26.3158308,20.154593 26.35512,20.3902224 26.3845873,20.5746308 L26.4140544,20.5746308 C26.4435218,20.3799775 26.4828109,20.1417869 26.5319231,19.8600519 C26.5810353,19.5783168 26.6326023,19.2940248 26.6866257,19.0071673 C26.7406492,18.7203098 26.7922162,18.4462625 26.8413284,18.1850173 C26.8904406,17.9237721 26.9297297,17.7214381 26.959197,17.5780093 L27.9316136,13.1214953 L29.9648481,13.1214953 L27.5927411,22.8028879 L25.3827036,22.8028879 L24.1892833,17.8085187 C24.0910589,17.3987223 24.0002027,16.9940543 23.916712,16.5945028 C23.8332213,16.1949513 23.7521874,15.7800386 23.6736079,15.3497523 L23.6441407,15.3497523 C23.5655612,15.7800386 23.4869829,16.1898289 23.4084033,16.5791355 C23.3298238,16.9684421 23.2414232,17.37311 23.1431988,17.7931514 L21.9939793,22.8028879 L19.8281425,22.8028879 L17.4118347,13.1214953 L19.4598029,13.1214953 Z M16.5034976,22.8028879 L14.9712049,17.1016234 C14.8336908,16.5996227 14.7035454,16.0976296 14.5807649,15.595629 C14.4579844,15.0936283 14.3474837,14.5865128 14.2492593,14.0742673 L14.2197921,14.0742673 C14.1117453,14.5865128 13.9914222,15.0936283 13.8588193,15.595629 C13.7262164,16.0976296 13.5911599,16.5996227 13.4536458,17.1016234 L11.8624187,22.8028879 L11.1404731,22.8028879 L9.51977888,17.1016234 C9.38226474,16.5893778 9.24475267,16.0848235 9.10723853,15.5879453 C8.9697244,15.0910671 8.84203462,14.5865128 8.72416536,14.0742673 L8.69469819,14.0742673 C8.58665137,14.5865128 8.47615059,15.0910671 8.36319255,15.5879453 C8.25023451,16.0848235 8.1250003,16.5893778 7.98748617,17.1016234 L6.4993942,22.8028879 L5.71851426,22.8028879 L8.32635859,13.1214953 L9.10723853,13.1214953 L10.9047358,19.6064916 C11.0127826,19.9753084 11.1159166,20.3466808 11.214141,20.7206201 C11.3123654,21.0945593 11.4056772,21.4710542 11.4940791,21.8501159 L11.5235463,21.8501159 C11.6119482,21.4710542 11.7028044,21.0971205 11.7961176,20.7283037 C11.8894307,20.3594869 11.9901092,19.9855533 12.098156,19.6064916 L13.8514525,13.1214953 L14.6175989,13.1214953 L17.2991111,22.8028879 L16.5034976,22.8028879 Z" id="Combined-Shape" fill="#FFFFFF" fill-rule="nonzero"></path>
                </g>
            </g>
        </g>
    </g>
</svg>