<?xml version="1.0" encoding="UTF-8"?>
<svg width="24px" height="24px" viewBox="0 0 24 24" version="1.1" xmlns="http://www.w3.org/2000/svg" xmlns:xlink="http://www.w3.org/1999/xlink">
    <!-- Generator: sketchtool 54.1 (76490) - https://sketchapp.com -->
    <title>800E1FC2-6D4F-436C-B857-D552BB722060</title>
    <desc>Created with sketchtool.</desc>
    <g id="Symbols" stroke="none" stroke-width="1" fill="none" fill-rule="evenodd">
        <g id="ic_menu_close">
            <g>
                <polygon id="Path" points="0 0 24 0 24 24 0 24"></polygon>
                <path d="M4,18 C3.45,18 3,17.55 3,17 C3,16.45 3.45,16 4,16 L15,16 C15.55,16 16,16.45 16,17 C16,17.55 15.55,18 15,18 L4,18 Z M4,13 C3.45,13 3,12.55 3,12 C3,11.45 3.45,11 4,11 L12,11 C12.55,11 13,11.45 13,12 C13,12.55 12.55,13 12,13 L4,13 Z M3,7 C3,6.45 3.45,6 4,6 L15,6 C15.55,6 16,6.45 16,7 C16,7.55 15.55,8 15,8 L4,8 C3.45,8 3,7.55 3,7 Z M18.3,14.88 L21.18,12 L18.3,9.12 C17.91,8.73 17.91,8.1 18.3,7.71 C18.69,7.32 19.32,7.32 19.71,7.71 L23.3,11.3 C23.69,11.69 23.69,12.32 23.3,12.71 L19.71,16.3 C19.32,16.69 18.69,16.69 18.3,16.3 C17.92,15.91 17.91,15.27 18.3,14.88 Z" id="Combined-Shape" fill="#C5CBDA" fill-rule="nonzero"></path>
            </g>
        </g>
    </g>
</svg>