<?xml version="1.0" encoding="UTF-8"?>
<svg width="24px" height="24px" viewBox="0 0 24 24" version="1.1" xmlns="http://www.w3.org/2000/svg" xmlns:xlink="http://www.w3.org/1999/xlink">
    <!-- Generator: sketchtool 54.1 (76490) - https://sketchapp.com -->
    <title>36B0388B-6D4B-48F3-A04A-FEDFBE22C389</title>
    <desc>Created with sketchtool.</desc>
    <g id="Symbols" stroke="none" stroke-width="1" fill="none" fill-rule="evenodd">
        <g id="ic_-insurance-event">
            <g>
                <polygon id="Path" points="0 0 24 0 24 24 0 24"></polygon>
                <path  class="icon-menu"  d="M19,3.91666667 L14.82,3.91666667 C14.4,2.805 13.3,2 12,2 C10.7,2 9.6,2.805 9.18,3.91666667 L5,3.91666667 C3.9,3.91666667 3,4.77916667 3,5.83333333 L3,19.25 C3,20.3041667 3.9,21.1666667 5,21.1666667 L19,21.1666667 C20.1,21.1666667 21,20.3041667 21,19.25 L21,5.83333333 C21,4.77916667 20.1,3.91666667 19,3.91666667 Z M13,18.2916667 L11,18.2916667 L11,16.375 L13,16.375 L13,18.2916667 Z M13,13.5 C13,14.0270833 12.55,14.4583333 12,14.4583333 C11.45,14.4583333 11,14.0270833 11,13.5 L11,9.66666667 C11,9.13958333 11.45,8.70833333 12,8.70833333 C12.55,8.70833333 13,9.13958333 13,9.66666667 L13,13.5 Z M12,5.83333333 C11.45,5.83333333 11,5.40208333 11,4.875 C11,4.34791667 11.45,3.91666667 12,3.91666667 C12.55,3.91666667 13,4.34791667 13,4.875 C13,5.40208333 12.55,5.83333333 12,5.83333333 Z" id="Shape" fill="#C5CBDA" fill-rule="nonzero"></path>
            </g>
        </g>
    </g>
</svg>