<?xml version="1.0" encoding="UTF-8"?>
<svg width="24px" height="24px" viewBox="0 0 24 24" version="1.1" xmlns="http://www.w3.org/2000/svg" xmlns:xlink="http://www.w3.org/1999/xlink">
    <!-- Generator: sketchtool 54.1 (76490) - https://sketchapp.com -->
    <title>8C92CA26-6325-40B0-96AA-FF7117B9E618</title>
    <desc>Created with sketchtool.</desc>
    <g id="Symbols" stroke="none" stroke-width="1" fill="none" fill-rule="evenodd">
        <g id="ic_faq">
            <g>
                <polygon id="Path" points="0 0 24 0 24 24 0 24"></polygon>
                <path class="icon-menu"  d="M11.5,2.91666667 C6.81,2.91666667 3,6.56791667 3,11.0625 C3,15.5570833 6.81,19.2083333 11.5,19.2083333 L12,19.2083333 L12,22.0833333 C16.86,19.8408333 20,15.375 20,11.0625 C20,6.56791667 16.19,2.91666667 11.5,2.91666667 Z M12.5,16.8125 L10.5,16.8125 L10.5,14.8958333 L12.5,14.8958333 L12.5,16.8125 Z M12.9,12.2316667 C12.89,12.24125 12.88,12.2604167 12.87,12.2795833 C12.82,12.35625 12.77,12.4329167 12.73,12.5095833 C12.71,12.5383333 12.7,12.5766667 12.69,12.615 C12.66,12.6820833 12.63,12.7491667 12.61,12.81625 C12.54,13.0175 12.51,13.2283333 12.51,13.4679167 L10.5,13.4679167 C10.5,12.9791667 10.58,12.5670833 10.7,12.2220833 C10.7,12.2125 10.7,12.2029167 10.71,12.1933333 C10.72,12.155 10.75,12.1358333 10.76,12.0975 C10.82,11.9441667 10.89,11.81 10.98,11.6758333 C11.01,11.6279167 11.05,11.58 11.08,11.5320833 C11.11,11.49375 11.13,11.4458333 11.16,11.4170833 L11.17,11.4266667 C12.01,10.3725 13.38,10.0466667 13.49,8.85833333 C13.58,7.91916667 12.88,7.00875 11.92,6.81708333 C10.88,6.60625 9.94,7.19083333 9.62,8.04375 C9.48,8.38875 9.15,8.66666667 8.74,8.66666667 L8.54,8.66666667 C7.94,8.66666667 7.5,8.10125 7.67,7.54541667 C8.22,5.80125 10.04,4.58416667 12.1,4.87166667 C13.79,5.11125 15.14,6.44333333 15.43,8.06291667 C15.87,10.40125 13.8,10.9666667 12.9,12.2316667 L12.9,12.2316667 Z" id="Shape" fill="#C5CBDA" fill-rule="nonzero"></path>
            </g>
        </g>
    </g>
</svg>